<svg width="48" height="48" viewBox="0 0 48 48" fill="none" xmlns="http://www.w3.org/2000/svg">
<path d="M21.5753 22.8083H26.4245C26.8165 22.8083 27.1342 22.4906 27.1342 22.0986C27.1342 21.7066 26.8165 21.3889 26.4245 21.3889H21.5753C21.1833 21.3889 20.8656 21.7066 20.8656 22.0986C20.8656 22.4906 21.1833 22.8083 21.5753 22.8083Z" fill="#016450"/>
<path d="M9.22786 15.7757C8.83593 15.7757 8.51819 16.0934 8.51819 16.4854V27.9653C8.51819 33.366 11.4599 38.3342 16.1955 40.9309L23.6588 45.0233C23.7651 45.0815 23.8825 45.1107 24 45.1107C24.1175 45.1107 24.2349 45.0815 24.3412 45.0233L31.8047 40.9309C36.5402 38.3342 39.482 33.366 39.482 27.9653V7.27839C39.482 6.95204 39.2593 6.66769 38.9425 6.58944L24.1792 2.94447C24.0674 2.91703 23.9508 2.91675 23.8391 2.94438L9.05792 6.58991C8.74093 6.66807 8.51819 6.95251 8.51819 7.27896V13.461C8.51819 13.8531 8.83593 14.1707 9.22786 14.1707C9.61979 14.1707 9.93753 13.8531 9.93753 13.461V7.83487L24.009 4.36438L38.0626 7.8342V27.9653C38.0626 32.8477 35.4032 37.3389 31.1222 39.6864L23.9999 43.5916L16.8778 39.6864C12.5968 37.3389 9.93744 32.8477 9.93744 27.9653V16.4854C9.93753 16.0934 9.61979 15.7757 9.22786 15.7757Z" fill="#016450"/>
<path d="M41.611 22.8452C42.003 22.8452 42.3206 22.5275 42.3206 22.1355V6.36518C42.3206 5.2668 41.5759 4.31575 40.5094 4.05241L24.1795 0.0207217C24.0677 -0.00681355 23.9511 -0.00690817 23.8395 0.0206271L7.49119 4.05241C6.42441 4.31556 5.67944 5.26671 5.67944 6.36537V27.9652C5.67944 34.4028 9.18598 40.3247 14.8306 43.4199L22.4599 47.6033C22.9422 47.8678 23.471 48 23.9999 47.9999C24.5289 47.9999 25.0579 47.8677 25.5399 47.6033L33.1694 43.4199C38.814 40.3247 42.3205 34.4028 42.3205 27.9652V25.1598C42.3205 24.7678 42.0029 24.4502 41.6109 24.4502C41.2188 24.4502 40.9012 24.7678 40.9012 25.1598V27.9652C40.9012 33.8844 37.677 39.3294 32.4869 42.1754L24.8574 46.3589C24.3205 46.6535 23.6794 46.6534 23.1423 46.3589L15.5129 42.1754C10.3228 39.3294 7.09869 33.8844 7.09869 27.9652V6.36537C7.09869 5.92131 7.39988 5.53676 7.83098 5.4305L24.0092 1.44054L40.169 5.43022C40.6001 5.53667 40.9011 5.92112 40.9011 6.36509V22.1354C40.9013 22.5274 41.2189 22.8452 41.611 22.8452Z" fill="#016450"/>
<path d="M15.0054 21.0047L23.553 14.0716C23.812 13.8614 24.1879 13.8613 24.447 14.0716L28.0857 17.023C28.3901 17.2698 28.8369 17.2233 29.084 16.9188C29.3308 16.6144 29.2842 16.1675 28.9798 15.9206L25.3412 12.9693C24.5639 12.3387 23.4358 12.339 22.6588 12.9692L14.1112 19.9023C13.7853 20.1668 13.5817 20.5422 13.5382 20.9597C13.4947 21.3772 13.6164 21.7865 13.8807 22.1126L14.5833 22.9788C14.9854 23.4746 15.6295 23.66 16.2099 23.5055V29.2583H15.9967C15.6048 29.2583 15.287 29.576 15.287 29.968C15.287 30.36 15.6048 30.6777 15.9967 30.6777H32.0065C32.3985 30.6777 32.7162 30.36 32.7162 29.968C32.7162 29.576 32.3985 29.2583 32.0065 29.2583H31.7899V23.5074C31.9205 23.5424 32.0558 23.5605 32.1932 23.5605C32.2481 23.5605 32.3036 23.5577 32.359 23.5518C32.7766 23.5083 33.1522 23.3049 33.4166 22.9788L34.119 22.1126C34.3835 21.7867 34.5052 21.3773 34.4616 20.9597C34.418 20.5422 34.2146 20.1667 33.8885 19.9024L31.3293 17.8265C31.0248 17.5794 30.578 17.6261 30.3311 17.9306C30.0842 18.235 30.1308 18.6818 30.4352 18.9287L32.9944 21.0048C33.0349 21.0376 33.047 21.0784 33.0499 21.107C33.0529 21.1355 33.0496 21.178 33.0167 21.2185L32.3141 22.0847C32.2814 22.1252 32.2405 22.1372 32.2119 22.1401C32.1831 22.1435 32.1407 22.1399 32.1003 22.1069L31.5327 21.6466C31.5319 21.6458 31.5309 21.6451 31.53 21.6444L24.4469 15.8992C24.1864 15.6881 23.8135 15.6881 23.5528 15.8992L16.4684 21.6455C16.4682 21.6455 16.468 21.6457 16.4678 21.6458L15.8993 22.107C15.8341 22.1599 15.7383 22.1497 15.6855 22.0848L14.9829 21.2186C14.9501 21.1781 14.9467 21.1356 14.9498 21.107C14.953 21.0784 14.965 21.0374 15.0054 21.0047ZM25.7149 29.2583H22.285V28.6775C22.285 27.732 23.0543 26.9626 24 26.9626C24.9455 26.9626 25.7149 27.732 25.7149 28.6775V29.2583ZM24.0001 17.3641L30.3707 22.5315V29.2583H27.1344V28.6775C27.1344 26.9493 25.7284 25.5433 24.0001 25.5433C22.2718 25.5433 20.8658 26.9493 20.8658 28.6775V29.2583H17.6294V22.5315L24.0001 17.3641Z" fill="#016450"/>
</svg>
