<svg width="58" height="48" viewBox="0 0 58 48" fill="none" xmlns="http://www.w3.org/2000/svg">
<path d="M56.0498 46.0687H55.5526V34.9994C55.5525 34.8231 55.5043 34.6502 55.4131 34.4993C55.322 34.3484 55.1914 34.2252 55.0355 34.1431L45.1948 28.9755V27.5911C46.0838 27.9548 47.078 27.9662 47.9752 27.6229C48.8723 27.2795 49.6048 26.6073 50.0239 25.7429C50.4429 24.8786 50.5168 23.8871 50.2307 22.9701C49.9445 22.0532 49.3198 21.2797 48.4835 20.8071L37.096 14.3612C37.451 13.475 37.7463 12.566 37.9799 11.6404C38.5676 9.25568 38.8368 6.80359 38.7804 4.34816C38.7762 4.14619 38.7088 3.95061 38.5877 3.7889C38.4666 3.62719 38.2979 3.50748 38.1053 3.44657C33.7294 2.06215 30.4501 0.739599 28.8845 0.0766673C28.7649 0.026071 28.6364 0 28.5066 0C28.3768 0 28.2483 0.026071 28.1287 0.0766673C26.5631 0.739599 23.2838 2.06546 18.9079 3.44657C18.7155 3.50749 18.547 3.62706 18.4259 3.78853C18.3049 3.95 18.2374 4.14529 18.2328 4.34705C18.1762 6.8025 18.4454 9.25461 19.0333 11.6393C19.2669 12.5651 19.5622 13.4743 19.9172 14.3606L8.53304 20.8093C7.80775 21.2216 7.23923 21.8622 6.91605 22.6314C6.59286 23.4005 6.53319 24.2549 6.74631 25.0615C6.95944 25.8681 7.43339 26.5816 8.09432 27.0907C8.75524 27.5998 9.56602 27.8759 10.4003 27.8762C10.888 27.8758 11.3709 27.7799 11.8217 27.5939V29.0031L2.03354 34.1409C1.8775 34.2229 1.74686 34.3461 1.65573 34.497C1.56459 34.6479 1.51643 34.8208 1.51646 34.9971V46.0664H0.966775C0.710371 46.0664 0.464467 46.1683 0.283162 46.3496C0.101856 46.5309 0 46.7768 0 47.0332C0 47.2896 0.101856 47.5355 0.283162 47.7168C0.464467 47.8981 0.710371 48 0.966775 48H56.0498C56.3062 48 56.5521 47.8981 56.7334 47.7168C56.9147 47.5355 57.0165 47.2896 57.0165 47.0332C57.0165 46.7768 56.9147 46.5309 56.7334 46.3496C56.5521 46.1683 56.3062 46.0664 56.0498 46.0664V46.0687ZM53.619 35.5838V46.0687H45.1948V31.1599L53.619 35.5838ZM34.7768 46.0687H22.2397V33.5321H34.7768V46.0687ZM35.7453 31.5985H21.2713C21.0149 31.5985 20.769 31.7004 20.5877 31.8817C20.4063 32.063 20.3045 32.3089 20.3045 32.5653V46.0687H13.758V26.5343L24.3423 20.5392C25.4926 21.464 26.7816 22.2013 28.1619 22.7241C28.3848 22.8102 28.6318 22.8102 28.8547 22.7241C30.2349 22.2013 31.524 21.464 32.6742 20.5392L43.2613 26.5343V46.0687H36.7104V32.5631C36.7098 32.3074 36.6079 32.0623 36.427 31.8815C36.2462 31.7007 36.001 31.599 35.7453 31.5985ZM47.5305 22.4915C47.7413 22.6108 47.9265 22.7704 48.0755 22.9613C48.2246 23.1522 48.3346 23.3706 48.3993 23.6039C48.4639 23.8373 48.482 24.0812 48.4524 24.3215C48.4228 24.5619 48.3462 24.7941 48.2269 25.0048C48.1076 25.2156 47.948 25.4008 47.7571 25.5498C47.5662 25.6989 47.3478 25.8089 47.1145 25.8735C46.8811 25.9382 46.6372 25.9563 46.3969 25.9267C46.1565 25.8971 45.9243 25.8205 45.7136 25.7012L34.1471 19.1514C34.9808 18.2335 35.6962 17.2148 36.2767 16.1191L47.5305 22.4915ZM28.5083 2.01298C30.128 2.69028 33.0532 3.84709 36.8535 5.07351C36.8459 7.12587 36.5956 9.17012 36.1077 11.1636C34.8923 15.9517 32.335 19.1851 28.5083 20.78C24.6815 19.1851 22.1259 15.9517 20.9089 11.1631C20.4209 9.16977 20.1705 7.12569 20.1631 5.07351C23.9633 3.84764 26.8885 2.69083 28.5083 2.01298ZM9.90254 25.8741C9.55101 25.7767 9.23626 25.5772 8.99807 25.301C8.75988 25.0247 8.60896 24.684 8.56438 24.3219C8.5198 23.9599 8.58356 23.5928 8.7476 23.2669C8.91164 22.9411 9.16861 22.6713 9.486 22.4915L20.7398 16.1191C21.3203 17.2148 22.0358 18.2335 22.8695 19.1514L11.3024 25.7012C11.0922 25.8213 10.8602 25.8984 10.6198 25.9281C10.3795 25.9578 10.1357 25.9394 9.90254 25.8741ZM3.45001 35.5838L11.8245 31.1875V46.0687H3.45001V35.5838Z" fill="#016450"/>
<path d="M26.6587 13.7132C26.7485 13.8053 26.8559 13.8785 26.9745 13.9285C27.0931 13.9786 27.2205 14.0043 27.3492 14.0043C27.4778 14.0043 27.6052 13.9787 27.7237 13.9289C27.8423 13.8791 27.9498 13.8061 28.0398 13.7143L32.6577 8.99863C32.7486 8.90838 32.8206 8.80097 32.8697 8.68263C32.9187 8.5643 32.9438 8.43739 32.9433 8.3093C32.9429 8.1812 32.917 8.05446 32.8672 7.93645C32.8174 7.81844 32.7446 7.71151 32.6531 7.62187C32.5616 7.53223 32.4532 7.46167 32.3342 7.41429C32.2152 7.36691 32.0879 7.34365 31.9599 7.34586C31.8318 7.34808 31.7054 7.37573 31.5881 7.4272C31.4708 7.47867 31.3649 7.55294 31.2766 7.64569L27.3509 11.6548L25.7394 10.0046C25.5577 9.83392 25.3171 9.74002 25.0678 9.74253C24.8185 9.74504 24.5798 9.84376 24.4015 10.0181C24.2233 10.1924 24.1193 10.4288 24.1112 10.678C24.1032 10.9272 24.1917 11.1699 24.3583 11.3553L26.6587 13.7132Z" fill="#016450"/>
</svg>
