<svg width="45" height="48" viewBox="0 0 45 48" fill="none" xmlns="http://www.w3.org/2000/svg">
<path d="M23.2001 19.2V20.8H22.4001C21.6575 20.8 20.9453 21.095 20.4202 21.6201C19.8951 22.1452 19.6001 22.8574 19.6001 23.6C19.6001 24.3426 19.8951 25.0548 20.4202 25.5799C20.9453 26.105 21.6575 26.4 22.4001 26.4H25.6001C25.9184 26.4 26.2236 26.5265 26.4486 26.7515C26.6737 26.9765 26.8001 27.2818 26.8001 27.6C26.8001 27.9183 26.6737 28.2235 26.4486 28.4486C26.2236 28.6736 25.9184 28.8 25.6001 28.8H20.4001V30.4H23.2001V32H24.8001V30.4H25.6001C26.3427 30.4 27.0549 30.105 27.58 29.5799C28.1051 29.0548 28.4001 28.3426 28.4001 27.6C28.4001 26.8574 28.1051 26.1452 27.58 25.6201C27.0549 25.095 26.3427 24.8 25.6001 24.8H22.4001C22.0818 24.8 21.7766 24.6736 21.5516 24.4486C21.3265 24.2235 21.2001 23.9183 21.2001 23.6C21.2001 23.2818 21.3265 22.9765 21.5516 22.7515C21.7766 22.5265 22.0818 22.4 22.4001 22.4H27.6001V20.8H24.8001V19.2H23.2001Z" fill="#016450"/>
<path d="M44 35.2H36.8001L36.0001 34.1333V24.158C36.0002 21.821 35.2386 19.5476 33.8306 17.6822C32.4227 15.8169 30.4452 14.4612 28.1977 13.8206L29.5693 9.02004C29.6033 8.90097 29.6093 8.77562 29.5866 8.65385C29.564 8.53209 29.5134 8.41725 29.4388 8.31836C29.3643 8.21948 29.2678 8.13926 29.1569 8.08402C29.0461 8.02879 28.9239 8.00004 28.8001 8.00005H24.0001V9.60004H27.7401L26.5972 13.6H24.0001V15.2H27.1192C29.177 15.6299 31.0241 16.755 32.3501 18.3863C33.676 20.0177 34.3999 22.0558 34.4001 24.158V34.4C34.4005 34.5214 34.4286 34.6411 34.4822 34.75C32.7561 33.9233 30.8538 33.532 28.9416 33.6105C27.0294 33.6889 25.1655 34.2347 23.513 35.2H17.6001C17.1085 35.2006 16.6237 35.3142 16.1831 35.5322C15.7425 35.7501 15.358 36.0665 15.0593 36.4569C14.7605 36.8473 14.5556 37.3011 14.4604 37.7834C14.3652 38.2656 14.3822 38.7633 14.5101 39.2379L11.3252 37.7789C11.3761 37.6584 11.4415 37.5446 11.5201 37.44L13.4401 34.88C13.5439 34.7415 13.6001 34.5731 13.6001 34.4V25.6H12.0001V34.1333L10.2401 36.48C10.0935 36.6762 9.96987 36.8885 9.87169 37.1128L7.23649 35.9058C6.44828 35.5446 5.55215 35.4969 4.73005 35.7724C3.90796 36.0479 3.22151 36.6259 2.81009 37.3891C2.52466 37.9434 2.38364 38.5608 2.40009 39.184C2.39799 39.8186 2.57367 40.4411 2.90721 40.9809C3.24076 41.5208 3.71884 41.9564 4.28729 42.2385L13.6156 46.9026C15.0603 47.6224 16.652 47.998 18.2661 48H44C44.2122 48 44.4157 47.9157 44.5657 47.7657C44.7158 47.6157 44.8 47.4122 44.8 47.2V36C44.8 35.7878 44.7158 35.5844 44.5657 35.4343C44.4157 35.2843 44.2122 35.2 44 35.2ZM34.4001 46.4H18.2661C16.9003 46.3983 15.5535 46.0805 14.331 45.4715L5.00319 40.8076C4.70105 40.6577 4.44694 40.4261 4.26965 40.1391C4.09236 39.8522 3.99898 39.5213 4.00009 39.184C3.98779 38.8259 4.06286 38.4703 4.21879 38.1477C4.43658 37.7416 4.8012 37.4339 5.2382 37.2875C5.67519 37.1411 6.15158 37.167 6.57009 37.36L15.6672 41.527C15.7716 41.575 15.8852 41.5999 16.0001 41.6H24.8001V40H17.6001C17.1757 40 16.7688 39.8314 16.4687 39.5314C16.1686 39.2313 16.0001 38.8244 16.0001 38.4C16.0001 37.9757 16.1686 37.5687 16.4687 37.2686C16.7688 36.9686 17.1757 36.8 17.6001 36.8H23.7331C23.8781 36.8 24.0204 36.7606 24.1448 36.6859L24.2198 36.6409C25.6789 35.7658 27.3353 35.2728 29.0355 35.2075C30.7357 35.1422 32.425 35.5067 33.947 36.2674L34.4001 36.4942V46.4ZM43.2 46.4H36.0001V36.8H43.2V46.4Z" fill="#016450"/>
<path d="M39.2 44.8C40.0836 44.8 40.8 44.0837 40.8 43.2C40.8 42.3163 40.0836 41.6 39.2 41.6C38.3163 41.6 37.6 42.3163 37.6 43.2C37.6 44.0837 38.3163 44.8 39.2 44.8Z" fill="#016450"/>
<path d="M5.61855 21.87C5.64233 21.9788 5.68854 22.0814 5.75424 22.1713C5.81994 22.2611 5.90367 22.3363 6.00008 22.392C6.09649 22.4476 6.20345 22.4826 6.31413 22.4945C6.42481 22.5065 6.53677 22.4952 6.64285 22.4614L9.43504 21.5722L11.4086 23.7384C11.4836 23.8207 11.5749 23.8865 11.6768 23.9315C11.7786 23.9764 11.8887 23.9997 12 23.9997C12.1114 23.9997 12.2215 23.9764 12.3233 23.9315C12.4251 23.8865 12.5165 23.8207 12.5914 23.7384L14.565 21.5722L17.3572 22.4614C17.4633 22.4952 17.5753 22.5065 17.6859 22.4945C17.7966 22.4826 17.9036 22.4476 18 22.392C18.0964 22.3363 18.1801 22.2611 18.2458 22.1713C18.3115 22.0814 18.3578 21.9788 18.3815 21.87L19.0076 19.0073L21.8704 18.3811C21.9792 18.3574 22.0818 18.3111 22.1717 18.2454C22.2615 18.1797 22.3367 18.096 22.3924 17.9996C22.448 17.9032 22.483 17.7962 22.4949 17.6856C22.5069 17.5749 22.4956 17.4629 22.4618 17.3568L21.5726 14.5646L23.7388 12.591C23.8211 12.5161 23.8869 12.4247 23.9319 12.3229C23.9768 12.2211 24.0001 12.111 24.0001 11.9996C24.0001 11.8883 23.9768 11.7782 23.9319 11.6764C23.8869 11.5745 23.8211 11.4832 23.7388 11.4082L21.5726 9.43504L22.4618 6.64285C22.4956 6.53674 22.5069 6.42476 22.4949 6.31405C22.4829 6.20335 22.4479 6.09637 22.3922 5.99995C22.3365 5.90354 22.2613 5.81982 22.1714 5.75414C22.0815 5.68846 21.9788 5.64228 21.87 5.61855L19.0072 4.99235L18.3815 2.13005C18.3578 2.0213 18.3115 1.9187 18.2458 1.82883C18.1801 1.73895 18.0964 1.66378 18 1.60812C17.9036 1.55245 17.7966 1.51752 17.6859 1.50556C17.5753 1.4936 17.4633 1.50487 17.3572 1.53865L14.565 2.42745L12.5914 0.261255C12.5165 0.178955 12.4251 0.113209 12.3233 0.0682227C12.2215 0.0232364 12.1114 0 12 0C11.8887 0 11.7786 0.0232364 11.6768 0.0682227C11.5749 0.113209 11.4836 0.178955 11.4086 0.261255L9.43504 2.42745L6.64285 1.53825C6.53674 1.50448 6.42476 1.49322 6.31405 1.5052C6.20335 1.51719 6.09637 1.55215 5.99995 1.60786C5.90354 1.66356 5.81981 1.73878 5.75414 1.8287C5.68846 1.91862 5.64228 2.02126 5.61855 2.13005L4.99245 4.99235L2.13005 5.61855C2.0213 5.64233 1.9187 5.68854 1.82883 5.75424C1.73895 5.81994 1.66378 5.90367 1.60812 6.00008C1.55245 6.09649 1.51752 6.20345 1.50556 6.31413C1.4936 6.42481 1.50487 6.53677 1.53865 6.64285L2.42785 9.43504L0.261255 11.4086C0.178955 11.4836 0.113209 11.5749 0.0682227 11.6768C0.0232364 11.7786 0 11.8887 0 12C0 12.1114 0.0232364 12.2215 0.0682227 12.3233C0.113209 12.4251 0.178955 12.5165 0.261255 12.5914L2.42745 14.565L1.53825 17.3572C1.50448 17.4633 1.49322 17.5753 1.5052 17.686C1.51719 17.7967 1.55215 17.9037 1.60786 18.0001C1.66356 18.0965 1.73878 18.1803 1.8287 18.2459C1.91862 18.3116 2.02126 18.3578 2.13005 18.3815L4.99285 19.0077L5.61855 21.87ZM3.88415 13.7277L1.98795 12L3.88415 10.2723C3.99729 10.1693 4.07849 10.0359 4.1181 9.88804C4.15772 9.74019 4.15409 9.58409 4.10765 9.43824L3.32925 6.99395L5.83535 6.44585C5.98487 6.41315 6.12188 6.33824 6.23011 6.23001C6.33834 6.12178 6.41325 5.98477 6.44595 5.83525L6.99395 3.32925L9.43824 4.10765C9.58411 4.15405 9.74022 4.15766 9.88807 4.11804C10.0359 4.07843 10.1693 3.99726 10.2724 3.88415L12 1.98785L13.7276 3.88415C13.8307 3.99731 13.9641 4.07852 14.112 4.11814C14.2599 4.15775 14.416 4.15411 14.5618 4.10765L17.0061 3.32925L17.5541 5.83525C17.5868 5.98477 17.6617 6.12178 17.77 6.23001C17.8782 6.33824 18.0152 6.41315 18.1647 6.44585L20.6708 6.99395L19.8924 9.43824C19.846 9.58409 19.8424 9.74019 19.882 9.88804C19.9216 10.0359 20.0028 10.1693 20.1159 10.2723L22.0121 12L20.1159 13.7277C20.0028 13.8308 19.9216 13.9642 19.882 14.112C19.8424 14.2599 19.846 14.416 19.8924 14.5618L20.6708 17.0061L18.1647 17.5542C18.0152 17.5869 17.8782 17.6618 17.77 17.7701C17.6617 17.8783 17.5868 18.0153 17.5541 18.1648L17.0061 20.6708L14.5618 19.8924C14.416 19.846 14.2599 19.8423 14.112 19.8819C13.9641 19.9216 13.8307 20.0028 13.7276 20.1159L12 22.0122L10.2724 20.1159C10.1694 20.0028 10.036 19.9216 9.88809 19.8819C9.74023 19.8423 9.5841 19.846 9.43824 19.8924L6.99395 20.6708L6.44595 18.1648C6.41325 18.0153 6.33834 17.8783 6.23011 17.7701C6.12188 17.6618 5.98487 17.5869 5.83535 17.5542L3.32925 17.0061L4.10765 14.5618C4.15409 14.416 4.15772 14.2599 4.1181 14.112C4.07849 13.9642 3.99729 13.8308 3.88415 13.7277Z" fill="#016450"/>
<path d="M15.4343 7.4344L7.43433 15.4344L8.5657 16.5658L16.5657 8.56577L15.4343 7.4344Z" fill="#016450"/>
<path d="M8.80002 11.2C9.2747 11.2 9.73871 11.0593 10.1334 10.7956C10.5281 10.5319 10.8357 10.157 11.0173 9.71848C11.199 9.27994 11.2465 8.79738 11.1539 8.33183C11.0613 7.86628 10.8327 7.43864 10.4971 7.10299C10.1614 6.76735 9.73379 6.53877 9.26824 6.44616C8.80268 6.35356 8.32012 6.40109 7.88158 6.58274C7.44304 6.76439 7.06821 7.072 6.8045 7.46668C6.54078 7.86136 6.40002 8.32537 6.40002 8.80005C6.40074 9.43635 6.65382 10.0464 7.10376 10.4963C7.55369 10.9462 8.16372 11.1993 8.80002 11.2ZM8.80002 8.00005C8.95825 8.00005 9.11292 8.04697 9.24448 8.13487C9.37604 8.22278 9.47857 8.34772 9.53912 8.4939C9.59967 8.64008 9.61552 8.80093 9.58465 8.95612C9.55378 9.1113 9.47759 9.25385 9.36571 9.36573C9.25382 9.47761 9.11128 9.55381 8.95609 9.58467C8.80091 9.61554 8.64006 9.5997 8.49388 9.53915C8.34769 9.4786 8.22275 9.37606 8.13485 9.2445C8.04694 9.11294 8.00002 8.95827 8.00002 8.80005C8.00026 8.58795 8.08462 8.3846 8.2346 8.23462C8.38458 8.08465 8.58792 8.00028 8.80002 8.00005Z" fill="#016450"/>
<path d="M13.6001 14.4C13.6001 14.8747 13.7409 15.3387 14.0046 15.7334C14.2683 16.1281 14.6431 16.4357 15.0817 16.6173C15.5202 16.799 16.0028 16.8465 16.4683 16.7539C16.9339 16.6613 17.3615 16.4327 17.6971 16.0971C18.0328 15.7614 18.2614 15.3338 18.354 14.8683C18.4466 14.4027 18.3991 13.9201 18.2174 13.4816C18.0358 13.0431 17.7281 12.6682 17.3335 12.4045C16.9388 12.1408 16.4748 12 16.0001 12C15.3638 12.0008 14.7538 12.2538 14.3038 12.7038C13.8539 13.1537 13.6008 13.7637 13.6001 14.4ZM16.8001 14.4C16.8001 14.5583 16.7532 14.7129 16.6653 14.8445C16.5774 14.9761 16.4524 15.0786 16.3062 15.1391C16.1601 15.1997 15.9992 15.2155 15.844 15.1847C15.6888 15.1538 15.5463 15.0776 15.4344 14.9657C15.3225 14.8538 15.2463 14.7113 15.2155 14.5561C15.1846 14.4009 15.2004 14.2401 15.261 14.0939C15.3215 13.9477 15.4241 13.8228 15.5556 13.7349C15.6872 13.647 15.8419 13.6 16.0001 13.6C16.2122 13.6003 16.4155 13.6846 16.5655 13.8346C16.7155 13.9846 16.7999 14.1879 16.8001 14.4Z" fill="#016450"/>
</svg>
