<svg width="37" height="48" viewBox="0 0 37 48" fill="none" xmlns="http://www.w3.org/2000/svg">
<path d="M24.3478 13.3912C24.4787 13.2056 24.5826 13.0025 24.656 12.7877C24.9853 12.8431 25.2994 12.9685 25.5759 13.1556C26.1326 13.5318 26.7853 13.7404 27.4568 13.7576C27.6689 13.7568 27.8802 13.7373 28.0888 13.6998C28.9674 13.5498 29.7506 13.0568 30.2654 12.3295C30.5412 11.8947 30.9873 11.5963 31.4939 11.5068C32.001 11.4177 32.5221 11.5455 32.9295 11.8599C33.6627 12.3674 34.567 12.5627 35.444 12.4029L35.1655 10.8271C34.6588 10.9166 34.1377 10.7884 33.7303 10.4744C32.2021 9.42867 30.1185 9.79625 29.04 11.3013C28.7642 11.7361 28.3181 12.0345 27.8111 12.124C27.5802 12.1705 27.3416 12.1646 27.1127 12.1072C27.5861 11.9822 28.024 11.7498 28.3928 11.4279C29.0787 10.8588 29.5103 10.04 29.5928 9.1525C29.6142 8.63804 29.8514 8.15679 30.2463 7.82632C30.6389 7.49194 31.1553 7.34194 31.6654 7.41342C32.5549 7.49428 33.4389 7.20991 34.1143 6.62631L33.0834 5.4013C32.6846 5.72357 32.1732 5.87201 31.6639 5.81341C29.8178 5.6724 28.1967 7.03217 28.015 8.87515C27.9939 9.38883 27.7572 9.87008 27.3634 10.2009C26.9693 10.5314 26.4545 10.6814 25.9447 10.6134C25.4455 10.5748 24.9435 10.6416 24.472 10.8103C24.2517 10.4283 23.9302 10.1142 23.5431 9.90289L27.1201 2.75754C27.2443 2.50871 27.2306 2.21339 27.0838 1.97706C26.9369 1.74112 26.6779 1.59815 26.4002 1.59972C25.8365 1.60479 25.2955 1.3794 24.9025 0.975885C23.49 -0.325295 21.3161 -0.325295 19.904 0.975885C19.5072 1.37589 18.9669 1.6005 18.4036 1.6005C17.84 1.6005 17.3001 1.37589 16.9032 0.975885C15.4895 -0.324514 13.3153 -0.324514 11.9016 0.975885C11.5071 1.37979 10.9645 1.60519 10.4001 1.59972C10.1227 1.59972 9.8649 1.74308 9.7192 1.97902C9.57311 2.21456 9.55982 2.50949 9.68404 2.75754L13.2567 9.90289C12.6512 10.2259 12.2149 10.7951 12.0606 11.4638C11.9063 12.1326 12.0489 12.8353 12.452 13.3912C5.11683 15.3615 0.0132813 22.0045 0 29.5999V44C0.00234381 46.2082 1.79181 47.9973 4.00002 48H32.8002C35.008 47.9973 36.7975 46.2082 36.8002 44V29.5999C36.7866 22.0045 31.683 15.3615 24.3478 13.3912ZM12.9009 2.22472C13.2981 1.82472 13.8384 1.59972 14.4024 1.59972C14.9661 1.59972 15.5067 1.82472 15.904 2.22472C17.3169 3.52473 19.4907 3.52473 20.904 2.22472C21.3005 1.82472 21.84 1.59972 22.4033 1.59972C22.9662 1.59972 23.506 1.82472 23.9025 2.22472C24.2845 2.56183 24.7244 2.82785 25.2009 3.00949L21.9056 9.59977H14.8942L11.6001 3.01027C12.077 2.82824 12.5177 2.56222 12.9009 2.22472ZM14.4001 12.7998C13.9579 12.7998 13.6001 12.4416 13.6001 11.9998C13.6001 11.558 13.9579 11.1998 14.4001 11.1998H22.4001C22.8419 11.1998 23.2001 11.558 23.2001 11.9998C23.2001 12.4416 22.8419 12.7998 22.4001 12.7998H14.4001ZM35.2002 44C35.2002 45.3254 34.1256 46.4 32.8002 46.4H4.00002C2.67424 46.4 1.60001 45.3254 1.60001 44V29.5999C1.60899 21.2088 8.40904 14.4092 16.8001 14.3998H20.0001C28.3908 14.4092 35.1908 21.2088 35.2002 29.5999V44Z" fill="#016450"/>
<path d="M13.0341 35.4339L22.6345 25.8338L23.7658 26.9651L14.1657 36.5656L13.0341 35.4339Z" fill="#016450"/>
<path d="M21.6001 31.9999C20.2743 31.9999 19.2001 33.0745 19.2001 34.3999C19.2001 35.7253 20.2743 36.7999 21.6001 36.7999C22.9255 36.7999 24.0001 35.7253 24.0001 34.3999C24.0001 33.0745 22.9255 31.9999 21.6001 31.9999ZM21.6001 35.1999C21.1579 35.1999 20.8001 34.8417 20.8001 34.3999C20.8001 33.9581 21.1579 33.5999 21.6001 33.5999C22.0419 33.5999 22.4001 33.9581 22.4001 34.3999C22.4001 34.8417 22.0419 35.1999 21.6001 35.1999Z" fill="#016450"/>
<path d="M15.2001 30.3999C16.5255 30.3999 17.6001 29.3253 17.6001 27.9999C17.6001 26.6745 16.5255 25.5999 15.2001 25.5999C13.8743 25.5999 12.8001 26.6745 12.8001 27.9999C12.8001 29.3253 13.8743 30.3999 15.2001 30.3999ZM15.2001 27.1999C15.6419 27.1999 16.0001 27.5581 16.0001 27.9999C16.0001 28.4417 15.6419 28.7999 15.2001 28.7999C14.7579 28.7999 14.4001 28.4417 14.4001 27.9999C14.4001 27.5581 14.7579 27.1999 15.2001 27.1999Z" fill="#016450"/>
<path d="M18.4001 19.9998C12.2141 19.9998 7.20004 25.0143 7.20004 31.1999C7.20004 37.3855 12.2141 42.4 18.4001 42.4C24.5857 42.4 29.6002 37.3855 29.6002 31.1999C29.5935 25.017 24.583 20.0065 18.4001 19.9998ZM18.4001 40.8C13.0981 40.8 8.80005 36.5019 8.80005 31.1999C8.80005 25.8979 13.0981 21.5998 18.4001 21.5998C23.7017 21.5998 28.0002 25.8979 28.0002 31.1999C27.9943 36.4995 23.6994 40.7941 18.4001 40.8Z" fill="#016450"/>
</svg>
