<svg width="370" height="255" viewBox="0 0 370 255" fill="none" xmlns="http://www.w3.org/2000/svg">
<circle cx="5" cy="5" r="5" fill="white"/>
<circle cx="45" cy="5" r="5" fill="white"/>
<circle cx="85" cy="5" r="5" fill="white"/>
<circle cx="125" cy="5" r="5" fill="white"/>
<circle cx="165" cy="5" r="5" fill="white"/>
<circle cx="205" cy="5" r="5" fill="white"/>
<circle cx="245" cy="5" r="5" fill="white"/>
<circle cx="285" cy="5" r="5" fill="white"/>
<circle cx="325" cy="5" r="5" fill="white"/>
<circle cx="365" cy="5" r="5" fill="white"/>
<circle cx="5" cy="45" r="5" fill="white"/>
<circle cx="45" cy="45" r="5" fill="white"/>
<circle cx="85" cy="45" r="5" fill="white"/>
<circle cx="125" cy="45" r="5" fill="white"/>
<circle cx="165" cy="45" r="5" fill="white"/>
<circle cx="205" cy="45" r="5" fill="white"/>
<circle cx="245" cy="45" r="5" fill="white"/>
<circle cx="285" cy="45" r="5" fill="white"/>
<circle cx="325" cy="45" r="5" fill="white"/>
<circle cx="365" cy="45" r="5" fill="white"/>
<circle cx="5" cy="85" r="5" fill="white"/>
<circle cx="45" cy="85" r="5" fill="white"/>
<circle cx="85" cy="85" r="5" fill="white"/>
<circle cx="125" cy="85" r="5" fill="white"/>
<circle cx="165" cy="85" r="5" fill="white"/>
<circle cx="205" cy="85" r="5" fill="white"/>
<circle cx="245" cy="85" r="5" fill="white"/>
<circle cx="285" cy="85" r="5" fill="white"/>
<circle cx="325" cy="85" r="5" fill="white"/>
<circle cx="365" cy="85" r="5" fill="white"/>
<circle cx="5" cy="125" r="5" fill="white"/>
<circle cx="45" cy="125" r="5" fill="white"/>
<circle cx="85" cy="125" r="5" fill="white"/>
<circle cx="125" cy="125" r="5" fill="white"/>
<circle cx="165" cy="125" r="5" fill="white"/>
<circle cx="205" cy="125" r="5" fill="white"/>
<circle cx="245" cy="125" r="5" fill="white"/>
<circle cx="285" cy="125" r="5" fill="white"/>
<circle cx="325" cy="125" r="5" fill="white"/>
<circle cx="365" cy="125" r="5" fill="white"/>
<circle cx="5" cy="165" r="5" fill="white"/>
<circle cx="45" cy="165" r="5" fill="white"/>
<circle cx="85" cy="165" r="5" fill="white"/>
<circle cx="125" cy="165" r="5" fill="white"/>
<circle cx="165" cy="165" r="5" fill="white"/>
<circle cx="205" cy="165" r="5" fill="white"/>
<circle cx="245" cy="165" r="5" fill="white"/>
<circle cx="285" cy="165" r="5" fill="white"/>
<circle cx="325" cy="165" r="5" fill="white"/>
<circle cx="365" cy="165" r="5" fill="white"/>
<circle cx="5" cy="205" r="5" fill="white"/>
<circle cx="45" cy="205" r="5" fill="white"/>
<circle cx="85" cy="205" r="5" fill="white"/>
<circle cx="125" cy="205" r="5" fill="white"/>
<circle cx="165" cy="205" r="5" fill="white"/>
<circle cx="205" cy="205" r="5" fill="white"/>
<circle cx="245" cy="205" r="5" fill="white"/>
<circle cx="285" cy="205" r="5" fill="white"/>
<circle cx="325" cy="205" r="5" fill="white"/>
<circle cx="365" cy="205" r="5" fill="white"/>
<circle cx="5" cy="245" r="5" fill="white"/>
<circle cx="45" cy="245" r="5" fill="white"/>
<circle cx="85" cy="245" r="5" fill="white"/>
<circle cx="125" cy="245" r="5" fill="white"/>
<circle cx="165" cy="245" r="5" fill="white"/>
<circle cx="205" cy="245" r="5" fill="white"/>
<circle cx="245" cy="245" r="5" fill="white"/>
<circle cx="285" cy="245" r="5" fill="white"/>
<circle cx="325" cy="245" r="5" fill="white"/>
<circle cx="365" cy="245" r="5" fill="white"/>
</svg>
