<svg width="17" height="17" viewBox="0 0 17 17" fill="none" xmlns="http://www.w3.org/2000/svg">
<path d="M13.1436 16.2634C12.9416 16.2634 12.7406 16.2014 12.5676 16.0779L8.50013 13.1609L4.43263 16.0779C4.26411 16.1992 4.06159 16.2641 3.85398 16.2633C3.64638 16.2626 3.44431 16.1963 3.27663 16.0739C3.1088 15.9522 2.98361 15.7807 2.91889 15.5837C2.85417 15.3868 2.8532 15.1745 2.91613 14.9769L4.43313 10.0809L0.402133 7.24042C0.235074 7.11713 0.111006 6.94443 0.0474784 6.74676C-0.016049 6.54909 -0.01582 6.33645 0.048133 6.13892C0.11259 5.94187 0.237346 5.77005 0.404768 5.64776C0.572189 5.52547 0.773809 5.45889 0.981133 5.45742L5.97363 5.44992L7.56313 0.67542C7.62873 0.478732 7.75454 0.307666 7.92275 0.186447C8.09096 0.0652283 8.29305 0 8.50038 0C8.70772 0 8.9098 0.0652283 9.07801 0.186447C9.24622 0.307666 9.37204 0.478732 9.43763 0.67542L11.0001 5.44992L16.0181 5.45742C16.2257 5.45859 16.4276 5.52514 16.5952 5.64762C16.7628 5.77009 16.8875 5.94226 16.9517 6.13967C17.0159 6.33708 17.0162 6.54968 16.9526 6.74729C16.8891 6.94489 16.7649 7.11744 16.5976 7.24042L12.5666 10.0809L14.0836 14.9769C14.1467 15.1744 14.1458 15.3867 14.0812 15.5837C14.0166 15.7807 13.8914 15.9522 13.7236 16.0739C13.5554 16.1973 13.3522 16.2637 13.1436 16.2634Z" fill="#FFAC33"/>
</svg>
