<?xml version="1.0" encoding="utf-8"?>
<svg version="1.1" id="Слой_1" xmlns="http://www.w3.org/2000/svg" xmlns:xlink="http://www.w3.org/1999/xlink" x="0px" y="0px"
	 viewBox="0 0 150 150" enable-background="new 0 0 150 150" xml:space="preserve">
<ellipse fill="#016450" cx="75" cy="75" rx="74.3" ry="74"/>
<g>
	<defs>
		<ellipse id="SVGID_1_" cx="75.1" cy="75" rx="74.3" ry="74"/>
	</defs>
	<clipPath id="SVGID_2_">
		<use xlink:href="#SVGID_1_"  overflow="visible"/>
	</clipPath>
	<g clip-path="url(#SVGID_2_)">
		<defs>
			<path id="SVGID_3_" d="M149.3,109.9c-17.3,24.7-32.8,39.4-73.3,39.4S0.7,109.7,0.7,78.6s34.9-42,75.3-42S167.2,84.5,149.3,109.9z"/>
		</defs>
		<use xlink:href="#SVGID_3_"  overflow="visible" fill="#016954"/>
		<clipPath id="SVGID_4_">
			<use xlink:href="#SVGID_3_"  overflow="visible"/>
		</clipPath>
		<ellipse clip-path="url(#SVGID_4_)" fill="#016954" cx="75" cy="75.3" rx="74.3" ry="74"/>
	</g>
</g>
<polygon fill="#FFFFFF" points="92.4,65.3 57.8,65.3 57.8,26.6 34.2,26.6 34.2,124.1 57.8,124.1 57.8,83.4 92.4,83.4 92.4,124.1 
	115.8,124.1 115.8,26.6 92.4,26.6 "/>
<rect x="-11.3" y="177.4" fill="#FFFFFF" width="166.7" height="111.9"/>
</svg>
