<svg width="218" height="33" viewBox="0 0 218 33" fill="none" xmlns="http://www.w3.org/2000/svg">
<path d="M24.5659 32H17.5791V19.8281H7.229V32H0.202148V2.85156H7.229V14.4229H17.5791V2.85156H24.5659V32ZM27.8691 20.9692C27.8691 18.8071 28.2896 16.8853 29.1304 15.2036C29.9712 13.5086 31.179 12.2074 32.7539 11.2998C34.3288 10.3923 36.1772 9.93848 38.2993 9.93848C41.5425 9.93848 44.0983 10.9461 45.9668 12.9614C47.8353 14.9634 48.7695 17.6927 48.7695 21.1494V21.3896C48.7695 24.7663 47.8286 27.4489 45.9468 29.4375C44.0783 31.4128 41.5425 32.4004 38.3394 32.4004C35.2563 32.4004 32.7806 31.4795 30.9121 29.6377C29.0436 27.7826 28.036 25.2734 27.8892 22.1104L27.8691 20.9692ZM34.6157 21.3896C34.6157 23.3916 34.9294 24.8597 35.5566 25.7939C36.1839 26.7282 37.1115 27.1953 38.3394 27.1953C40.7417 27.1953 41.9696 25.3468 42.0229 21.6499V20.9692C42.0229 17.0854 40.7817 15.1436 38.2993 15.1436C36.0438 15.1436 34.8226 16.8185 34.6357 20.1685L34.6157 21.3896ZM58.1187 10.3389L58.3389 12.8813C59.8737 10.9194 61.9357 9.93848 64.5249 9.93848C67.2609 9.93848 69.1094 11.0262 70.0703 13.2017C71.5384 11.0262 73.6605 9.93848 76.4365 9.93848C80.8275 9.93848 83.083 12.5944 83.2031 17.9062V32H76.4365V18.3267C76.4365 17.2189 76.2497 16.4115 75.876 15.9043C75.5023 15.3971 74.8216 15.1436 73.834 15.1436C72.4993 15.1436 71.505 15.7375 70.8511 16.9253L70.8711 17.2056V32H64.1045V18.3667C64.1045 17.2323 63.9243 16.4115 63.564 15.9043C63.2036 15.3971 62.5163 15.1436 61.502 15.1436C60.2074 15.1436 59.2197 15.7375 58.5391 16.9253V32H51.7925V10.3389H58.1187ZM97.5371 32.4004C94.2139 32.4004 91.5246 31.4128 89.4692 29.4375C87.4139 27.4489 86.3862 24.8664 86.3862 21.6899V21.1294C86.3862 18.9139 86.7933 16.9587 87.6074 15.2637C88.4349 13.5687 89.6361 12.2607 91.2109 11.3398C92.7858 10.4056 94.6543 9.93848 96.8164 9.93848C99.8594 9.93848 102.262 10.8861 104.023 12.7812C105.785 14.6631 106.666 17.2923 106.666 20.6689V23.2915H93.2529C93.4932 24.506 94.0203 25.4603 94.8345 26.1543C95.6486 26.8483 96.703 27.1953 97.9976 27.1953C100.133 27.1953 101.801 26.4479 103.002 24.9531L106.085 28.5967C105.245 29.7578 104.05 30.6854 102.502 31.3794C100.967 32.0601 99.3122 32.4004 97.5371 32.4004ZM96.7764 15.1436C94.8011 15.1436 93.6266 16.4515 93.2529 19.0674H100.06V18.5469C100.086 17.4658 99.8127 16.6317 99.2388 16.0444C98.6649 15.4438 97.8441 15.1436 96.7764 15.1436ZM110.97 32V15.0234H107.827V10.3389H110.97V9.61816C111.01 6.73535 111.958 4.52653 113.813 2.9917C115.575 1.55029 118.037 0.82959 121.2 0.82959C123.189 0.82959 125.538 1.21663 128.247 1.99072L127.326 7.31592L126.205 7.01562C124.75 6.62858 123.215 6.43506 121.601 6.43506C119.025 6.43506 117.737 7.60954 117.737 9.9585V10.3389H121.981V15.0234H117.737V32H110.97ZM131.35 32H124.563V10.3389H131.35V32ZM141.66 10.3389L141.88 12.8813C143.375 10.9194 145.437 9.93848 148.066 9.93848C150.322 9.93848 152.004 10.6125 153.111 11.9604C154.232 13.3084 154.813 15.3371 154.853 18.0464V32H148.086V18.3267C148.086 17.2323 147.866 16.4315 147.426 15.9243C146.985 15.4038 146.185 15.1436 145.023 15.1436C143.702 15.1436 142.721 15.6641 142.081 16.7051V32H135.334V10.3389H141.66ZM157.756 21.0093C157.756 17.5793 158.497 14.8766 159.978 12.9014C161.459 10.9261 163.528 9.93848 166.184 9.93848C168.119 9.93848 169.748 10.6992 171.069 12.2207V1.25H177.835V32H171.77L171.429 29.6777C170.041 31.4928 168.279 32.4004 166.144 32.4004C163.568 32.4004 161.526 31.4128 160.018 29.4375C158.51 27.4622 157.756 24.6528 157.756 21.0093ZM164.502 21.4297C164.502 25.2734 165.624 27.1953 167.866 27.1953C169.361 27.1953 170.428 26.568 171.069 25.3135V17.0654C170.455 15.7842 169.401 15.1436 167.906 15.1436C165.824 15.1436 164.696 16.8252 164.522 20.1885L164.502 21.4297ZM192.149 32.4004C188.826 32.4004 186.137 31.4128 184.082 29.4375C182.026 27.4489 180.999 24.8664 180.999 21.6899V21.1294C180.999 18.9139 181.406 16.9587 182.22 15.2637C183.047 13.5687 184.248 12.2607 185.823 11.3398C187.398 10.4056 189.267 9.93848 191.429 9.93848C194.472 9.93848 196.874 10.8861 198.636 12.7812C200.397 14.6631 201.278 17.2923 201.278 20.6689V23.2915H187.865C188.105 24.506 188.633 25.4603 189.447 26.1543C190.261 26.8483 191.315 27.1953 192.61 27.1953C194.745 27.1953 196.414 26.4479 197.615 24.9531L200.698 28.5967C199.857 29.7578 198.662 30.6854 197.114 31.3794C195.579 32.0601 193.924 32.4004 192.149 32.4004ZM191.389 15.1436C189.413 15.1436 188.239 16.4515 187.865 19.0674H194.672V18.5469C194.699 17.4658 194.425 16.6317 193.851 16.0444C193.277 15.4438 192.456 15.1436 191.389 15.1436ZM217.114 16.4448L214.892 16.2847C212.77 16.2847 211.408 16.952 210.808 18.2866V32H204.061V10.3389H210.387L210.607 13.1216C211.742 10.9995 213.323 9.93848 215.352 9.93848C216.073 9.93848 216.7 10.0186 217.234 10.1787L217.114 16.4448Z" fill="black"/>
</svg>
