<svg width="160" height="24" viewBox="0 0 160 24" fill="none" xmlns="http://www.w3.org/2000/svg">
<path d="M18.4385 23H13.3262V14.0938H5.75293V23H0.611328V1.67188H5.75293V10.1387H13.3262V1.67188H18.4385V23ZM20.8555 14.9287C20.8555 13.3467 21.1631 11.9404 21.7783 10.71C22.3936 9.46973 23.2773 8.51758 24.4297 7.85352C25.582 7.18945 26.9346 6.85742 28.4873 6.85742C30.8604 6.85742 32.7305 7.59473 34.0977 9.06934C35.4648 10.5342 36.1484 12.5312 36.1484 15.0605V15.2363C36.1484 17.707 35.46 19.6699 34.083 21.125C32.7158 22.5703 30.8604 23.293 28.5166 23.293C26.2607 23.293 24.4492 22.6191 23.082 21.2715C21.7148 19.9141 20.9775 18.0781 20.8701 15.7637L20.8555 14.9287ZM25.792 15.2363C25.792 16.7012 26.0215 17.7754 26.4805 18.459C26.9395 19.1426 27.6182 19.4844 28.5166 19.4844C30.2744 19.4844 31.1729 18.1318 31.2119 15.4268V14.9287C31.2119 12.0869 30.3037 10.666 28.4873 10.666C26.8369 10.666 25.9434 11.8916 25.8066 14.3428L25.792 15.2363ZM42.9893 7.15039L43.1504 9.01074C44.2734 7.5752 45.7822 6.85742 47.6768 6.85742C49.6787 6.85742 51.0312 7.65332 51.7344 9.24512C52.8086 7.65332 54.3613 6.85742 56.3926 6.85742C59.6055 6.85742 61.2559 8.80078 61.3438 12.6875V23H56.3926V12.9951C56.3926 12.1846 56.2559 11.5938 55.9824 11.2227C55.709 10.8516 55.2109 10.666 54.4883 10.666C53.5117 10.666 52.7842 11.1006 52.3057 11.9697L52.3203 12.1748V23H47.3691V13.0244C47.3691 12.1943 47.2373 11.5938 46.9736 11.2227C46.71 10.8516 46.207 10.666 45.4648 10.666C44.5176 10.666 43.7949 11.1006 43.2969 11.9697V23H38.3604V7.15039H42.9893ZM71.832 23.293C69.4004 23.293 67.4326 22.5703 65.9287 21.125C64.4248 19.6699 63.6729 17.7803 63.6729 15.4561V15.0459C63.6729 13.4248 63.9707 11.9941 64.5664 10.7539C65.1719 9.51367 66.0508 8.55664 67.2031 7.88281C68.3555 7.19922 69.7227 6.85742 71.3047 6.85742C73.5312 6.85742 75.2891 7.55078 76.5781 8.9375C77.8672 10.3145 78.5117 12.2383 78.5117 14.709V16.6279H68.6973C68.873 17.5166 69.2588 18.2148 69.8545 18.7227C70.4502 19.2305 71.2217 19.4844 72.1689 19.4844C73.7314 19.4844 74.9521 18.9375 75.8311 17.8438L78.0869 20.5098C77.4717 21.3594 76.5977 22.0381 75.4648 22.5459C74.3418 23.0439 73.1309 23.293 71.832 23.293ZM71.2754 10.666C69.8301 10.666 68.9707 11.623 68.6973 13.5371H73.6777V13.1562C73.6973 12.3652 73.4971 11.7549 73.0771 11.3252C72.6572 10.8857 72.0566 10.666 71.2754 10.666ZM81.6611 23V10.5781H79.3613V7.15039H81.6611V6.62305C81.6904 4.51367 82.3838 2.89746 83.7412 1.77441C85.0303 0.719727 86.832 0.192383 89.1465 0.192383C90.6016 0.192383 92.3203 0.475586 94.3027 1.04199L93.6289 4.93848L92.8086 4.71875C91.7441 4.43555 90.6211 4.29395 89.4395 4.29395C87.5547 4.29395 86.6123 5.15332 86.6123 6.87207V7.15039H89.7178V10.5781H86.6123V23H81.6611ZM96.5732 23H91.6074V7.15039H96.5732V23ZM104.117 7.15039L104.278 9.01074C105.372 7.5752 106.881 6.85742 108.805 6.85742C110.455 6.85742 111.686 7.35059 112.496 8.33691C113.316 9.32324 113.741 10.8076 113.771 12.79V23H108.819V12.9951C108.819 12.1943 108.658 11.6084 108.336 11.2373C108.014 10.8564 107.428 10.666 106.578 10.666C105.611 10.666 104.894 11.0469 104.425 11.8086V23H99.4883V7.15039H104.117ZM115.895 14.958C115.895 12.4482 116.437 10.4707 117.521 9.02539C118.604 7.58008 120.118 6.85742 122.062 6.85742C123.478 6.85742 124.669 7.41406 125.636 8.52734V0.5H130.587V23H126.148L125.899 21.3008C124.884 22.6289 123.595 23.293 122.032 23.293C120.147 23.293 118.653 22.5703 117.55 21.125C116.446 19.6797 115.895 17.624 115.895 14.958ZM120.831 15.2656C120.831 18.0781 121.651 19.4844 123.292 19.4844C124.386 19.4844 125.167 19.0254 125.636 18.1074V12.0723C125.187 11.1348 124.415 10.666 123.321 10.666C121.798 10.666 120.973 11.8965 120.846 14.3574L120.831 15.2656ZM141.061 23.293C138.629 23.293 136.661 22.5703 135.157 21.125C133.653 19.6699 132.901 17.7803 132.901 15.4561V15.0459C132.901 13.4248 133.199 11.9941 133.795 10.7539C134.4 9.51367 135.279 8.55664 136.432 7.88281C137.584 7.19922 138.951 6.85742 140.533 6.85742C142.76 6.85742 144.518 7.55078 145.807 8.9375C147.096 10.3145 147.74 12.2383 147.74 14.709V16.6279H137.926C138.102 17.5166 138.487 18.2148 139.083 18.7227C139.679 19.2305 140.45 19.4844 141.397 19.4844C142.96 19.4844 144.181 18.9375 145.06 17.8438L147.315 20.5098C146.7 21.3594 145.826 22.0381 144.693 22.5459C143.57 23.0439 142.359 23.293 141.061 23.293ZM140.504 10.666C139.059 10.666 138.199 11.623 137.926 13.5371H142.906V13.1562C142.926 12.3652 142.726 11.7549 142.306 11.3252C141.886 10.8857 141.285 10.666 140.504 10.666ZM159.327 11.6182L157.701 11.501C156.148 11.501 155.152 11.9893 154.713 12.9658V23H149.776V7.15039H154.405L154.566 9.18652C155.396 7.63379 156.554 6.85742 158.038 6.85742C158.565 6.85742 159.024 6.91602 159.415 7.0332L159.327 11.6182Z" fill="white"/>
</svg>
